<svg width="120" height="120" viewBox="0 0 120 120" fill="none" xmlns="http://www.w3.org/2000/svg">
<rect width="120" height="120" rx="10" fill="white"/>
<path d="M55.5105 34.8932L58.4834 31.9384C59.7422 30.6872 61.7777 30.6872 63.0231 31.9384L89.0559 57.7998C90.3147 59.0509 90.3147 61.0741 89.0559 62.3119L63.0231 88.1866C61.7643 89.4378 59.7288 89.4378 58.4834 88.1866L55.5105 85.2318C54.2384 83.9674 54.2652 81.9043 55.5641 80.6665L71.7007 65.3865H33.2139C31.4329 65.3865 30 63.9623 30 62.1921V57.9329C30 56.1627 31.4329 54.7385 33.2139 54.7385H71.7007L55.5641 39.4585C54.2518 38.2207 54.225 36.1576 55.5105 34.8932Z" fill="#031859"/>
</svg>
