<svg width="69" height="61" viewBox="0 0 69 61" fill="none" xmlns="http://www.w3.org/2000/svg">
<path d="M2.46429 11.3672H66.5357C67.8968 11.3672 69 10.262 69 8.89844V2.72656C69 1.36304 67.8968 0.257812 66.5357 0.257812H2.46429C1.10323 0.257812 0 1.36304 0 2.72656V8.89844C0 10.262 1.10323 11.3672 2.46429 11.3672ZM2.46429 36.0547H66.5357C67.8968 36.0547 69 34.9495 69 33.5859V27.4141C69 26.0505 67.8968 24.9453 66.5357 24.9453H2.46429C1.10323 24.9453 0 26.0505 0 27.4141V33.5859C0 34.9495 1.10323 36.0547 2.46429 36.0547ZM2.46429 60.7422H66.5357C67.8968 60.7422 69 59.637 69 58.2734V52.1016C69 50.738 67.8968 49.6328 66.5357 49.6328H2.46429C1.10323 49.6328 0 50.738 0 52.1016V58.2734C0 59.637 1.10323 60.7422 2.46429 60.7422Z" fill="#04318C"/>
</svg>
